HIERARCHY
ROOT Hips
{
  OFFSET 5.80788e-005 67.184 3.4734
  CHANNELS 6 Xposition Yposition Zposition Zrotation Xrotation Yrotation
  JOINT Chest
  {
    OFFSET 0 8.7983 -4.7612
    CHANNELS 3 Zrotation Xrotation Yrotation
    JOINT Chest2
    {
      OFFSET 0 8.0291 0.4195
      CHANNELS 3 Zrotation Xrotation Yrotation
      JOINT Chest3
      {
        OFFSET 0 9.9351 -2.2114
        CHANNELS 3 Zrotation Xrotation Yrotation
        JOINT Neck
        {
          OFFSET 0 22.3885 -0.4656
          CHANNELS 3 Zrotation Xrotation Yrotation
          JOINT Head
          {
            OFFSET -0.0001 12.643 3.4389
            CHANNELS 3 Zrotation Xrotation Yrotation
            End Site
            {
              OFFSET 0.0001 17.6655 0.5274
            }
          }
        }
        JOINT LeftCollar
        {
          OFFSET 2.2603 21.606 7.4023
          CHANNELS 3 Zrotation Xrotation Yrotation
          JOINT LeftShoulder
          {
            OFFSET 13.5163 -1.1332 -5.0146
            CHANNELS 3 Zrotation Xrotation Yrotation
            JOINT LeftElbow
            {
              OFFSET -0.0995 -28.05 -0.2431
              CHANNELS 3 Zrotation Xrotation Yrotation
              JOINT LeftWrist
              {
                OFFSET 0.0679 -23.3996 -0.1402
                CHANNELS 3 Zrotation Xrotation Yrotation
                JOINT LeftFinger1
                {
                  OFFSET 0.7932 -9.069 2.5189
                  CHANNELS 3 Zrotation Xrotation Yrotation
                  JOINT LeftFinger11
                  {
                    OFFSET -0.8272 -3.3923 0.5977
                    CHANNELS 3 Zrotation Xrotation Yrotation
                    JOINT LeftFinger12
                    {
                      OFFSET -0.5649 -2.3158 0.4082
                      CHANNELS 3 Zrotation Xrotation Yrotation
                      End Site
                      {
                        OFFSET -0.4919 -1.6479 0.2673
                      }
                    }
                  }
                }
                JOINT LeftFinger2
                {
                  OFFSET 0.9159 -9.2044 0.2193
                  CHANNELS 3 Zrotation Xrotation Yrotation
                  JOINT LeftFinger21
                  {
                    OFFSET 0.0117 -4.1944 -0.0248
                    CHANNELS 3 Zrotation Xrotation Yrotation
                    JOINT LeftFinger22
                    {
                      OFFSET 0.0071 -2.3249 -0.0142
                      CHANNELS 3 Zrotation Xrotation Yrotation
                      End Site
                      {
                        OFFSET -0.1475 -2.0882 0.0028
                      }
                    }
                  }
                }
                JOINT LeftFinger3
                {
                  OFFSET 0.6113 -8.7231 -2.0637
                  CHANNELS 3 Zrotation Xrotation Yrotation
                  JOINT LeftFinger31
                  {
                    OFFSET -0.1927 -3.8059 -0.2383
                    CHANNELS 3 Zrotation Xrotation Yrotation
                    JOINT LeftFinger32
                    {
                      OFFSET -0.1091 -2.1688 -0.1362
                      CHANNELS 3 Zrotation Xrotation Yrotation
                      End Site
                      {
                        OFFSET -0.2358 -1.9176 -0.0906
                      }
                    }
                  }
                }
                JOINT LeftFinger4
                {
                  OFFSET -0.6151 -8.0947 -3.5641
                  CHANNELS 3 Zrotation Xrotation Yrotation
                  JOINT LeftFinger41
                  {
                    OFFSET -0.4882 -2.341 -0.6462
                    CHANNELS 3 Zrotation Xrotation Yrotation
                    JOINT LeftFinger42
                    {
                      OFFSET -0.3575 -1.7167 -0.4742
                      CHANNELS 3 Zrotation Xrotation Yrotation
                      End Site
                      {
                        OFFSET -0.4187 -1.5237 -0.3496
                      }
                    }
                  }
                }
                JOINT LeftFinger0
                {
                  OFFSET -1.42 -1.8761 1.4223
                  CHANNELS 3 Zrotation Xrotation Yrotation
                  JOINT LeftFinger01
                  {
                    OFFSET -1.1471 -3.4929 2.6334
                    CHANNELS 3 Zrotation Xrotation Yrotation
                    JOINT LeftFinger02
                    {
                      OFFSET -0.823 -2.3 1.6571
                      CHANNELS 3 Zrotation Xrotation Yrotation
                      End Site
                      {
                        OFFSET -0.5822 -1.6914 1.1582
                      }
                    }
                  }
                }
              }
            }
          }
        }
        JOINT RightCollar
        {
          OFFSET -2.2603 21.606 7.4023
          CHANNELS 3 Zrotation Xrotation Yrotation
          JOINT RightShoulder
          {
            OFFSET -13.5187 -1.1334 -5.0155
            CHANNELS 3 Zrotation Xrotation Yrotation
            JOINT RightElbow
            {
              OFFSET 0.0994 -28.0499 -0.2431
              CHANNELS 3 Zrotation Xrotation Yrotation
              JOINT RightWrist
              {
                OFFSET -0.0679 -23.3996 -0.1402
                CHANNELS 3 Zrotation Xrotation Yrotation
                JOINT RightFinger1
                {
                  OFFSET -0.7932 -9.0691 2.5189
                  CHANNELS 3 Zrotation Xrotation Yrotation
                  JOINT RightFinger11
                  {
                    OFFSET 0.8272 -3.3923 0.5977
                    CHANNELS 3 Zrotation Xrotation Yrotation
                    JOINT RightFinger12
                    {
                      OFFSET 0.565 -2.3158 0.4082
                      CHANNELS 3 Zrotation Xrotation Yrotation
                      End Site
                      {
                        OFFSET 0.4919 -1.6479 0.2673
                      }
                    }
                  }
                }
                JOINT RightFinger2
                {
                  OFFSET -0.916 -9.2044 0.2193
                  CHANNELS 3 Zrotation Xrotation Yrotation
                  JOINT RightFinger21
                  {
                    OFFSET -0.0117 -4.1944 -0.0248
                    CHANNELS 3 Zrotation Xrotation Yrotation
                    JOINT RightFinger22
                    {
                      OFFSET -0.0071 -2.3249 -0.0142
                      CHANNELS 3 Zrotation Xrotation Yrotation
                      End Site
                      {
                        OFFSET 0.1475 -2.0882 0.0028
                      }
                    }
                  }
                }
                JOINT RightFinger3
                {
                  OFFSET -0.6113 -8.7231 -2.0637
                  CHANNELS 3 Zrotation Xrotation Yrotation
                  JOINT RightFinger31
                  {
                    OFFSET 0.1927 -3.8059 -0.2383
                    CHANNELS 3 Zrotation Xrotation Yrotation
                    JOINT RightFinger32
                    {
                      OFFSET 0.1091 -2.1688 -0.1362
                      CHANNELS 3 Zrotation Xrotation Yrotation
                      End Site
                      {
                        OFFSET 0.2358 -1.9176 -0.0906
                      }
                    }
                  }
                }
                JOINT RightFinger4
                {
                  OFFSET 0.6151 -8.0947 -3.564
                  CHANNELS 3 Zrotation Xrotation Yrotation
                  JOINT RightFinger41
                  {
                    OFFSET 0.4882 -2.341 -0.6462
                    CHANNELS 3 Zrotation Xrotation Yrotation
                    JOINT RightFinger42
                    {
                      OFFSET 0.3574 -1.7166 -0.4742
                      CHANNELS 3 Zrotation Xrotation Yrotation
                      End Site
                      {
                        OFFSET 0.4187 -1.5237 -0.3496
                      }
                    }
                  }
                }
                JOINT RightFinger0
                {
                  OFFSET 1.4199 -1.8761 1.4221
                  CHANNELS 3 Zrotation Xrotation Yrotation
                  JOINT RightFinger01
                  {
                    OFFSET 1.1472 -3.4929 2.6336
                    CHANNELS 3 Zrotation Xrotation Yrotation
                    JOINT RightFinger02
                    {
                      OFFSET 0.8229 -2.3 1.6571
                      CHANNELS 3 Zrotation Xrotation Yrotation
                      End Site
                      {
                        OFFSET 0.5822 -1.6914 1.1582
                      }
                    }
                  }
                }
              }
            }
          }
        }
      }
    }
  }
  JOINT RightHip
  {
    OFFSET -9.412 3.9771 -0.7758
    CHANNELS 3 Zrotation Xrotation Yrotation
    JOINT RightKnee
    {
      OFFSET -0.7531 -40.938 0
      CHANNELS 3 Zrotation Xrotation Yrotation
      JOINT RightAnkle
      {
        OFFSET 0 -40.1986 0
        CHANNELS 3 Zrotation Xrotation Yrotation
        JOINT RightToe
        {
          OFFSET 0 -4.4182 9.239
          CHANNELS 3 Zrotation Xrotation Yrotation
          End Site
          {
            OFFSET 0 0 6.1981
          }
        }
      }
    }
  }
  JOINT LeftHip
  {
    OFFSET 9.4119 3.9773 -0.7758
    CHANNELS 3 Zrotation Xrotation Yrotation
    JOINT LeftKnee
    {
      OFFSET 0.7532 -40.9383 0
      CHANNELS 3 Zrotation Xrotation Yrotation
      JOINT LeftAnkle
      {
        OFFSET 0 -40.1986 0
        CHANNELS 3 Zrotation Xrotation Yrotation
        JOINT LeftToe
        {
          OFFSET 0 -4.4182 9.239
          CHANNELS 3 Zrotation Xrotation Yrotation
          End Site
          {
            OFFSET 0 0 6.1981
          }
        }
      }
    }
  }
}
MOTION
Frames:	5
Frame Time:	0.0333333
39.8248 38.4748 13.7157 -179.72 88.7724 -0.279907 -0.00465559 1.36984 -0.089588 -0.00717109 2.73969 -0.179141 -0.00717113 2.73969 -0.179141 -7.46259 9.37065 17.8852 0.000184048 0.0850244 -0.121832 -23.5971 -2.85663 -19.1708 53.3049 13.7126 -37.0926 -0.920378 -11.8682 -36.2273 -1.08288 -3.46525 5.06348 -7.95139e-016 6.36111e-015 7.95139e-016 4.41391e-032 3.18055e-015 -7.95139e-016 -2.38542e-015 0 1.19271e-015 -7.95139e-016 6.36111e-015 7.95139e-016 -0.0127999 0.00233025 8.81355e-005 -1.54487e-031 3.18055e-015 2.78299e-015 -7.95139e-016 6.36111e-015 7.95139e-016 -0.0160356 0.00298302 0.000847222 0 3.18055e-015 -0 -7.95139e-016 6.36111e-015 7.95139e-016 -0.0125784 0.00311972 0.00282103 -3.18055e-015 -1.90833e-014 3.18055e-015 -7.95139e-016 6.36111e-015 7.95139e-016 4.41391e-032 3.18055e-015 -7.95139e-016 -2.38542e-015 0 1.19271e-015 23.8288 -2.64141 13.8195 -55.9915 9.57164 40.6577 0.639254 -12.797 35.9676 1.09149 -3.443 -5.11095 -3.18055e-015 0 -1.19271e-015 -3.18055e-015 -6.36111e-015 -5.1684e-015 -1.59028e-015 0 -1.59028e-015 -3.18055e-015 0 -1.19271e-015 0.0129553 0.00232309 -8.65001e-005 1.59028e-015 0 -1.19271e-015 -3.18055e-015 0 -1.19271e-015 0.0163245 0.00302531 -0.000873624 0 0 -1.19271e-015 -3.18055e-015 0 -1.19271e-015 0.0145911 0.0036831 -0.00326877 -1.59028e-015 3.18055e-015 2.38542e-015 -3.18055e-015 0 -1.19271e-015 -3.18055e-015 -6.36111e-015 -5.1684e-015 -1.59028e-015 0 -1.59028e-015 -92.4959 -78.3516 -119.54 0.205803 27.2203 41.354 -20.4175 4.8501 -8.67611 1.48491e-006 -7.47029e-008 6.84023e-007 91.4422 -76.483 118.49 -0.348955 26.9279 -41.3154 18.6961 4.54421 8.13362 6.26902e-007 4.29479e-006 -1.56179e-006 
39.8248 38.4515 13.6388 -179.671 88.9558 -0.329048 -0.00429374 1.25283 -0.0895607 -0.0066305 2.50571 -0.179091 -0.00663045 2.50569 -0.179092 -7.58527 9.30216 17.8435 0.000178931 0.0847295 -0.121414 -23.0395 -2.78964 -18.913 52.7598 13.6732 -37.009 -0.958298 -12.0906 -36.2405 -1.29441 -3.30826 4.87218 -3.18055e-015 -6.36111e-015 1.59028e-015 -3.18055e-015 -6.36111e-015 1.59028e-015 -3.18055e-015 -6.36111e-015 -3.97569e-016 -3.18055e-015 -6.36111e-015 1.59028e-015 -0.01285 0.00231483 6.98906e-005 -1.47163e-006 2.58375e-006 7.50423e-006 -3.18055e-015 -6.36111e-015 1.59028e-015 -0.016019 0.00296687 0.000844117 2.80484e-006 9.26049e-006 5.26088e-006 -3.18055e-015 -6.36111e-015 1.59028e-015 -0.0126113 0.00311576 0.00282795 7.95139e-016 3.18055e-015 -1.98785e-015 -3.18055e-015 -6.36111e-015 1.59028e-015 -3.18055e-015 -6.36111e-015 1.59028e-015 -3.18055e-015 -6.36111e-015 -3.97569e-016 23.2317 -2.57893 13.5568 -55.4069 9.56024 40.6124 0.663599 -13.0166 35.9736 1.30265 -3.28742 -4.91195 1.59028e-015 0 -7.95139e-016 2.88061e-006 7.53163e-006 4.8104e-007 1.59028e-015 3.18055e-015 -3.97569e-016 1.59028e-015 0 -7.95139e-016 0.0129693 0.00232635 -8.44593e-005 -1.59028e-015 9.54166e-015 2.38542e-015 1.59028e-015 0 -7.95139e-016 0.0162739 0.00302192 -0.000868472 3.18055e-015 0 -2.38542e-015 1.59028e-015 0 -7.95139e-016 0.0145789 0.00367543 -0.00325744 -1.59028e-015 -3.18055e-015 -1.98785e-015 1.59028e-015 0 -7.95139e-016 2.88061e-006 7.53163e-006 4.8104e-007 1.59028e-015 3.18055e-015 -3.97569e-016 -92.4946 -78.3515 -119.538 0.205762 27.093 41.3564 -20.4143 4.85161 -8.67515 3.27957e-006 -1.81408e-007 5.91332e-007 91.4372 -76.4834 118.483 -0.353082 26.7949 -41.3166 18.6922 4.54664 8.13235 -3.27844e-006 -1.7789e-006 -5.97081e-007 
39.8248 38.4281 13.562 -179.601 89.1391 -0.39912 -0.00393143 1.13599 -0.0895438 -0.0060886 2.272 -0.179063 -0.00608867 2.27199 -0.179063 -7.70793 9.23301 17.8016 0.000183019 0.0844626 -0.121021 -22.4823 -2.72091 -18.6561 52.2149 13.633 -36.9258 -0.996395 -12.313 -36.254 -1.50539 -3.15053 4.68155 -3.23979e-006 5.06363e-006 -9.8434e-007 3.23979e-006 -5.06363e-006 9.84341e-007 3.18055e-015 0 2.38542e-015 -3.23979e-006 5.06363e-006 -9.8434e-007 -0.0128292 0.00232383 0.00010604 3.23985e-006 -3.41207e-006 9.84471e-007 -3.23979e-006 5.06363e-006 -9.8434e-007 -0.0160373 0.00297714 0.000862964 3.2587e-006 1.50132e-005 -1.68556e-006 -3.23979e-006 5.06363e-006 -9.8434e-007 -0.0125753 0.00312485 0.00282851 5.82748e-007 4.61911e-006 3.71993e-006 -3.23979e-006 5.06363e-006 -9.8434e-007 3.23979e-006 -5.06363e-006 9.84341e-007 3.18055e-015 0 2.38542e-015 22.635 -2.51439 13.2952 -54.8225 9.54747 40.5674 0.688688 -13.2357 35.9796 1.51321 -3.13106 -4.71352 -7.20679e-006 -3.47207e-007 1.66595e-006 -1.07917e-006 4.8738e-006 1.1264e-005 1.59028e-015 3.18055e-015 -3.97569e-015 -7.20679e-006 -3.47207e-007 1.66595e-006 0.0130036 0.00234183 -7.95017e-005 4.90446e-007 -3.64287e-006 3.7244e-006 -7.20679e-006 -3.47207e-007 1.66595e-006 0.0163115 0.00304152 -0.00086225 -1.59028e-015 3.18055e-015 2.38542e-015 -7.20679e-006 -3.47207e-007 1.66595e-006 0.0145801 0.00368481 -0.00325712 3.97252e-031 -6.36111e-015 3.57812e-015 -7.20679e-006 -3.47207e-007 1.66595e-006 -1.07917e-006 4.8738e-006 1.1264e-005 1.59028e-015 3.18055e-015 -3.97569e-015 -92.4937 -78.3514 -119.535 0.205719 26.9658 41.3587 -20.4112 4.85309 -8.67418 -2.38542e-015 1.62359e-006 -3.18055e-015 91.4306 -76.4841 118.475 -0.357122 26.6614 -41.3177 18.6883 4.54904 8.13111 2.42585e-006 5.97886e-006 -1.64925e-006 
39.8248 38.4047 13.4852 -179.493 89.3224 -0.507115 -0.00356886 1.01909 -0.0895234 -0.00554615 2.0382 -0.179026 -0.00554613 2.03822 -0.179027 -7.83058 9.16424 17.7596 0.000180272 0.0841819 -0.120613 -21.9256 -2.64942 -18.3999 51.6699 13.5933 -36.8429 -1.03354 -12.5361 -36.2676 -1.7158 -2.9922 4.49151 1.59028e-015 0 -9.14409e-015 2.38542e-015 3.18055e-015 -9.14409e-015 7.95139e-016 3.18055e-015 -1.07344e-014 1.59028e-015 0 -9.14409e-015 -0.0128515 0.00234112 9.4444e-005 -2.20695e-032 3.18055e-015 3.97569e-016 1.59028e-015 0 -9.14409e-015 -0.0161001 0.00299521 0.000857095 -1.59028e-015 -1.27222e-014 3.97569e-016 1.59028e-015 0 -9.14409e-015 -0.0125704 0.0031274 0.0028221 -7.95139e-016 6.36111e-015 1.98785e-015 1.59028e-015 0 -9.14409e-015 2.38542e-015 3.18055e-015 -9.14409e-015 7.95139e-016 3.18055e-015 -1.07344e-014 22.0388 -2.44689 13.0342 -54.2379 9.53567 40.5223 0.712708 -13.4557 35.9858 1.72318 -2.97404 -4.51573 1.59028e-015 0 -2.78299e-015 -5.44135e-006 -1.56593e-006 5.34456e-006 -1.59028e-015 0 -2.38542e-015 1.59028e-015 0 -2.78299e-015 0.0128929 0.00230818 -7.37708e-005 -1.59028e-015 -1.27222e-014 9.93923e-015 1.59028e-015 0 -2.78299e-015 0.0162945 0.00302787 -0.000860372 5.11236e-006 7.67022e-007 -5.91648e-006 1.59028e-015 0 -2.78299e-015 0.0145825 0.0036794 -0.00325474 3.18055e-015 -3.18055e-015 1.59028e-015 1.59028e-015 0 -2.78299e-015 -5.44135e-006 -1.56593e-006 5.34456e-006 -1.59028e-015 0 -2.38542e-015 -92.4929 -78.3513 -119.533 0.205679 26.8385 41.3611 -20.4079 4.85464 -8.67321 3.18055e-015 4.27288e-006 -0 91.4262 -76.4845 118.469 -0.361114 26.5285 -41.3189 18.6843 4.55151 8.12985 -3.18055e-015 6.10724e-009 3.18055e-015 
39.8248 38.3813 13.4085 -179.305 89.5058 -0.695262 -0.00320584 0.902099 -0.089493 -0.00500318 1.80419 -0.178968 -0.00500322 1.8042 -0.178969 -7.95324 9.09615 17.7175 0.000174663 0.0838834 -0.120204 -21.3694 -2.5749 -18.1442 51.1267 13.5484 -36.7609 -1.07461 -12.7566 -36.2814 -1.92562 -2.8331 4.3021 -7.06613e-006 1.36151e-005 9.78572e-006 1.59028e-015 0 -3.97569e-016 7.95139e-016 0 3.97569e-016 -7.06613e-006 1.36151e-005 9.78572e-006 -0.0127679 0.00230605 6.64854e-005 1.59028e-015 -3.18055e-015 -1.98785e-015 -7.06613e-006 1.36151e-005 9.78572e-006 -0.0160671 0.00299064 0.000852246 7.95139e-016 3.18055e-015 -3.97569e-016 -7.06613e-006 1.36151e-005 9.78572e-006 -0.0125412 0.00310942 0.00280994 0 0 -7.95139e-016 -7.06613e-006 1.36151e-005 9.78572e-006 1.59028e-015 0 -3.97569e-016 7.95139e-016 0 3.97569e-016 21.4431 -2.37619 12.7737 -53.6537 9.52258 40.4775 0.737448 -13.6751 35.9921 1.93258 -2.81627 -4.31854 -2.20695e-032 -3.18055e-015 -3.97569e-016 4.41391e-032 3.18055e-015 -7.95139e-016 0 0 -0 -2.20695e-032 -3.18055e-015 -3.97569e-016 0.0129932 0.00231369 -8.59222e-005 3.18055e-015 0 -1.19271e-015 -2.20695e-032 -3.18055e-015 -3.97569e-016 0.0163027 0.00303245 -0.000875949 -3.18055e-015 0 -3.18055e-015 -2.20695e-032 -3.18055e-015 -3.97569e-016 0.0145556 0.00366377 -0.00325693 1.76556e-031 -6.36111e-015 1.59028e-015 -2.20695e-032 -3.18055e-015 -3.97569e-016 4.41391e-032 3.18055e-015 -7.95139e-016 0 0 -0 -92.4896 -78.3514 -119.528 0.205652 26.7108 41.3635 -20.4047 4.85615 -8.67224 -4.10781e-006 3.79152e-006 -1.23806e-006 91.42 -76.4851 118.461 -0.365123 26.3951 -41.3201 18.6803 4.554 8.12859 6.33154e-007 -4.8396e-006 -1.55823e-006 
